<?xml version="1.0" encoding="utf-8"?>
<!-- Generator: Adobe Illustrator 16.0.0, SVG Export Plug-In . SVG Version: 6.00 Build 0)  -->
<!DOCTYPE svg PUBLIC "-//W3C//DTD SVG 1.1//EN" "http://www.w3.org/Graphics/SVG/1.1/DTD/svg11.dtd">
<svg version="1.1" id="Layer_1" xmlns="http://www.w3.org/2000/svg" xmlns:xlink="http://www.w3.org/1999/xlink" x="0px" y="0px"
	 width="580px" height="700px" viewBox="0 0 580 700" enable-background="new 0 0 580 700" xml:space="preserve">
<g>
	<path fill="#1D1D1B" d="M4.259,2.529h321.934c57.705,0,101.062,7.086,130.09,21.246c29.021,14.166,52.974,34.392,71.878,60.693
		c18.896,26.308,28.347,58.338,28.347,96.104c0,76.546-41.507,127.63-124.523,153.254c47.913,10.806,83.854,32.255,107.819,64.335
		c23.96,32.08,35.938,67.027,35.938,104.85c0,51.666-19.573,96.332-58.717,133.979c-39.152,37.656-102.756,56.48-190.832,56.48
		H4.259V2.529z M165.73,124.52v151.349h122.498c44.874,0,73.144-8.857,84.785-26.574c11.643-17.716,17.466-34.674,17.466-50.873
		c0-17.54-4.81-32.649-14.429-45.304c-9.617-12.654-20.169-20.578-31.636-23.79c-11.473-3.206-34.091-4.809-67.828-4.809H165.73z
		 M165.73,398.871v166.535h124.262c42.422,0,72.399-7.416,89.912-22.271c17.513-14.848,26.265-35.602,26.265-62.262
		c0-22.27-8.421-41.508-25.259-57.705c-16.839-16.197-44.791-24.297-83.845-24.297H165.73z"/>
	<polygon fill="#FFFFFF" points="151,683.5 17,683.5 17,16.5 151,22.504 	"/>
	<polygon fill="#FFFFFF" points="330,16 330,112 30.549,112 18,16 	"/>
	<rect x="20" y="286" fill="#FFFFFF" width="248" height="104"/>
</g>
</svg>
